<?xml version="1.0" standalone="no"?>
<!DOCTYPE svg PUBLIC "-//W3C//DTD SVG 20010904//EN"
 "http://www.w3.org/TR/2001/REC-SVG-20010904/DTD/svg10.dtd">
<svg version="1.0" xmlns="http://www.w3.org/2000/svg"
 width="700.000000pt" height="700.000000pt" viewBox="0 0 700.000000 700.000000"
 preserveAspectRatio="xMidYMid meet">
<metadata>
Created by potrace 1.14, written by Peter Selinger 2001-2017
</metadata>
<g transform="translate(0.000000,700.000000) scale(0.100000,-0.100000)"
fill="#000000" stroke="none">
<path d="M1862 6771 c-3 -7 -5 -328 -5 -712 l-1 -698 -205 0 c-113 0 -222 0
-241 0 -31 -1 -56 -23 -277 -243 -167 -167 -246 -252 -252 -273 -4 -16 -7
-235 -6 -485 0 -362 3 -459 14 -475 7 -11 105 -89 217 -172 l203 -152 3 -270
c3 -253 4 -270 23 -291 11 -12 31 -27 45 -32 38 -14 1143 -13 1179 1 58 25 62
45 62 331 l0 259 205 153 c142 106 209 162 219 185 13 27 15 99 15 483 -1 248
-5 461 -10 475 -12 33 -475 493 -503 500 -12 3 -123 7 -247 8 l-225 2 0 702
c0 386 -2 704 -5 707 -3 3 -50 6 -104 8 -77 2 -100 0 -104 -11z m793 -1815
l185 -185 0 -388 0 -388 -109 -82 -109 -81 -1 454 c0 446 0 455 -21 484 -12
16 -35 33 -51 37 -16 5 -285 8 -597 8 -614 -1 -592 1 -626 -56 -14 -24 -16
-80 -16 -474 0 -246 -4 -445 -8 -443 -5 2 -54 37 -110 78 l-100 75 0 387 1
387 188 188 189 188 500 -1 500 -2 185 -186z m-254 -375 c3 -51 4 -288 1 -298
-3 -10 -100 -13 -438 -13 l-434 0 0 163 0 163 435 0 c388 0 435 -1 436 -15z
m1 -543 c3 -11 2 -841 -1 -858 -1 -4 -809 -5 -858 -1 -10 1 -13 95 -13 436 l0
435 434 0 c338 0 435 -3 438 -12z"/>
<path d="M1077 6118 c-156 -20 -343 -96 -465 -190 -192 -148 -323 -356 -373
-593 -18 -87 -19 -168 -19 -2145 0 -1130 2 -2075 5 -2100 28 -216 140 -439
297 -588 151 -144 364 -246 558 -267 36 -4 619 -7 1295 -7 l1230 0 0 108 0
109 -1240 1 c-1331 1 -1304 0 -1441 53 -252 98 -429 319 -479 601 -9 46 -9
168 0 222 40 265 230 503 475 597 127 49 206 57 591 56 l346 0 0 106 1 107
-27 4 c-46 6 -704 1 -751 -6 -146 -21 -245 -55 -374 -129 -38 -22 -78 -47 -89
-56 -42 -33 -122 -107 -145 -133 -13 -16 -27 -28 -30 -28 -4 0 -6 764 -6 1697
2 1671 2 1699 22 1778 38 150 102 265 205 367 72 71 126 109 220 153 131 62
164 67 457 71 146 2 272 3 281 4 14 0 17 15 18 108 l2 108 -253 0 c-139 0
-279 -4 -311 -8z"/>
<path d="M2299 6121 c-5 -20 -4 -211 0 -212 3 0 806 0 1783 -1 1029 0 1800 -4
1830 -10 302 -52 540 -272 619 -573 21 -80 21 -86 23 -1778 0 -935 -2 -1701
-5 -1702 -3 -2 -29 20 -57 49 -144 151 -334 250 -552 286 -57 10 -320 13
-1070 14 -547 1 -1007 -1 -1021 -2 l-27 -4 2 -106 1 -107 1030 -1 c567 0 1039
-3 1050 -7 11 -3 34 -9 50 -11 51 -9 146 -45 204 -77 393 -220 514 -727 262
-1097 -108 -160 -278 -275 -467 -318 -67 -15 -134 -17 -449 -18 l-370 -1 0
-107 c-1 -69 3 -108 10 -109 81 -6 749 3 798 11 417 66 750 399 818 818 15 97
15 4152 0 4242 -73 417 -382 729 -803 811 -49 10 -470 13 -1860 14 -989 1
-1799 -1 -1799 -4z"/>
<path d="M3438 4466 c-18 -12 -37 -35 -43 -52 -16 -50 -12 -1682 4 -1721 26
-64 19 -63 646 -63 621 0 607 -1 637 60 13 27 15 144 14 878 -1 918 2 871 -56
904 -24 14 -95 16 -599 16 l-571 0 -32 -22z m1041 -361 l0 -165 -435 0 c-239
0 -435 3 -435 8 -4 22 -5 299 -1 310 3 9 100 12 437 12 l433 0 1 -165z m-27
-384 l27 -1 0 -435 0 -435 -437 0 -437 0 0 433 c0 332 3 433 12 437 10 4 710
5 835 1z"/>
<path d="M4993 4483 c-28 -5 -73 -57 -74 -86 -6 -108 -3 -1660 4 -1687 5 -23
20 -43 41 -58 l32 -22 566 0 c377 0 575 4 596 11 17 6 39 23 49 37 17 26 18
73 19 877 0 746 -2 853 -15 877 -33 57 -16 56 -631 55 -311 0 -575 -2 -587 -4z
m1017 -378 l0 -165 -437 2 -438 3 -1 155 c0 85 1 158 3 163 2 4 200 7 439 7
l434 0 0 -165z m-17 -384 c16 -1 17 -29 17 -436 l0 -435 -438 0 -438 0 0 433
c0 337 3 433 13 437 9 4 767 5 846 1z"/>
<path d="M2077 2185 c-2 -5 -3 -55 -2 -110 l0 -99 100 -2 c55 0 105 3 110 7 9
6 13 177 6 209 -2 10 -211 5 -214 -5z"/>
<path d="M2520 2190 c-13 -9 -11 -208 3 -212 10 -4 177 -3 200 1 4 0 7 48 7
106 0 58 -3 105 -7 106 -34 4 -197 3 -203 -1z"/>
<path d="M2960 2192 c-6 -2 -10 -48 -10 -110 l0 -107 105 -1 c124 0 116 -9
112 130 l-2 90 -98 0 c-53 1 -102 0 -107 -2z"/>
<path d="M3391 2180 c-5 -12 -7 -149 -2 -195 1 -13 195 -14 208 -2 9 9 12 206
3 208 -3 0 -49 1 -103 2 -80 2 -100 -1 -106 -13z"/>
<path d="M1402 1739 c-160 -41 -287 -141 -357 -282 -107 -218 -68 -465 102
-634 146 -145 370 -196 562 -128 150 53 280 181 332 330 30 84 30 89 30 195 0
109 -26 196 -87 288 -128 194 -363 287 -582 231z m265 -234 c204 -93 252 -360
94 -523 -92 -95 -244 -124 -364 -69 -196 89 -253 331 -121 505 35 45 119 98
174 110 70 14 155 6 217 -23z"/>
<path d="M2732 1744 c-371 -77 -556 -507 -354 -820 107 -166 266 -255 457
-256 155 -1 278 49 388 156 212 210 216 552 7 765 -129 132 -321 192 -498 155z
m252 -243 c108 -53 174 -152 181 -273 16 -297 -346 -458 -555 -247 -60 61 -91
133 -94 220 -9 246 246 410 468 300z"/>
<path d="M4080 1753 c-51 -7 -137 -36 -190 -66 -292 -160 -374 -540 -173 -804
227 -298 674 -287 886 23 58 85 89 184 90 289 0 50 -5 114 -11 143 -25 116
-124 257 -233 330 -90 61 -257 99 -369 85z m182 -235 c51 -17 116 -66 150
-111 49 -69 62 -111 62 -208 0 -54 -5 -77 -32 -132 -58 -117 -160 -180 -292
-181 -60 0 -86 5 -131 26 -171 79 -243 286 -156 453 37 73 129 143 214 165 43
10 137 4 185 -12z"/>
<path d="M5353 1744 c-227 -46 -400 -232 -431 -463 -45 -323 210 -614 537
-614 215 0 398 114 491 306 45 95 56 144 54 262 -6 326 -325 576 -651 509z
m212 -224 c138 -45 235 -192 222 -337 -11 -117 -77 -212 -182 -264 -248 -122
-528 103 -459 370 49 186 238 290 419 231z"/>
<path d="M3828 441 c0 -3 -2 -52 -3 -108 l-3 -103 27 -1 c14 0 63 -1 108 -2
94 -2 84 -15 84 108 0 125 14 111 -106 111 -58 0 -106 -2 -107 -5z"/>
<path d="M4260 338 l0 -108 28 -1 c33 -1 115 -1 159 0 l32 1 0 105 c0 58 -3
106 -7 106 -4 1 -53 3 -109 3 l-103 2 0 -108z"/>
<path d="M4701 429 c-5 -15 -6 -121 -2 -189 1 -12 19 -15 108 -13 l108 1 1 99
c0 54 -1 103 -3 108 -2 7 -43 11 -104 11 -87 0 -102 -2 -108 -17z"/>
</g>
</svg>
