<svg xmlns="http://www.w3.org/2000/svg" fill="currentColor" viewBox="0 0 56 60">
  <path d="M28 54.6543c-.2652376.000069-.5196316-.1052657-.707183-.292817-.1875513-.1875514-.292886-.4419454-.292817-.707183V30c0-.5522847.4477153-1 1-1s1 .4477153 1 1v23.6543c.000069.2652376-.1052657.5196316-.292817.707183-.1875514.1875513-.4419454.292886-.707183.292817ZM1.88281 46.15186c-.16279005.0002491-.32312739-.0396669-.4668-.11621l-.88379-.46826c-.32726774-.1734327-.53200508-.5134177-.53222-.8838v-1c0-.5522847.44771525-1 1-1s1 .4477153 1 1v.39795l.35156.18652c.40635171.2149357.61380354.6792377.50280108 1.1253291-.11100246.4460913-.5118569.7590264-.97155108.7584609v.00001ZM1 40.77393c-.26523763.000069-.51963163-.1052657-.70718297-.292817C.1052657 40.2935616-.00006899 40.0391676 0 39.77393v-1.95459c1e-8-.5522847.44771526-1 1-1 .55228474 0 .99999999.4477153 1 1v1.95459c.00006899.2652376-.1052657.5196316-.29281703.707183-.18755134.1875513-.44194534.292886-.70718297.292817Zm0-5.86426c-.26523763.000069-.51963163-.1052657-.70718297-.292817C.1052657 34.4293016-.00006899 34.1749076 0 33.90967v-1.95459c0-.3572656.19059891-.6873926.5-.8660254.30940107-.1786328.69059893-.1786328 1.00000001 0 .30940108.1786328.5.5087598.49999999.8660254v1.95459c.00006899.2652376-.1052657.5196316-.29281703.707183-.18755134.1875513-.44194534.292886-.70718297.292817Zm0-5.86426c-.26523763.000069-.51963163-.1052657-.70718297-.292817C.1052657 28.5650416-.00006899 28.3106476 0 28.04541v-1.95508c1e-8-.5522847.44771526-1 1-1 .55228474 0 .99999999.4477153 1 1v1.95508c.00006899.2652376-.1052657.5196316-.29281703.707183-.18755134.1875513-.44194534.292886-.70718297.292817Zm0-5.86426c-.26523763.000069-.51963163-.1052657-.70718297-.292817C.1052657 22.7007816-.00006899 22.4463876 0 22.18115v-1.95508c1e-8-.5522847.44771526-1 1-1 .55228474 0 .99999999.4477153 1 1v1.95508c.00006899.2652376-.1052657.5196316-.29281703.707183-.18755134.1875513-.44194534.292886-.70718297.292817Zm0-5.86474c-.26523763.000069-.51963163-.1052657-.70718297-.292817C.1052657 16.8360416-.00006899 16.5816476 0 16.31641v-1c.00022059-.3703808.20496156-.7103617.53223-.88379l.88379-.46826c.31580558-.1676915.69711806-.1539931 1.00007675.0359269.30295868.1899201.48145128.5271548.46813649.884473-.01331478.3573182-.21641034.6803338-.53266324.8471801L2 15.91846v.39795c.00006899.2652376-.1052657.5196316-.29281703.707183-.18755134.1875513-.44194534.292886-.70718297.292817Zm4.48926-3.37989c-.45958525.0004976-.86036261-.3122669-.9715572-.7581981-.11119458-.4459312.09581431-.9102494.5018272-1.1255919l1.80273-.95557c.48810374-.2588835 1.09365651-.0730637 1.35253998.41504.25888347.4881037.07306374 1.0936565-.41503998 1.35254l-1.80276.95557c-.14405133.0764374-.30466506.1163418-.46774.11621Zm5.40723-2.86719c-.4595852.0004976-.8603626-.3122669-.9715572-.7581981-.11119458-.44593115.0958143-.91024943.5018272-1.1255919L12.22949 8.23c.4881037-.25888346 1.0936565-.07306372 1.35254.41504001.2588834.48810373.0730637 1.09365651-.41504 1.35253999l-1.80273.95557c-.1440651.0764368-.3046932.1163345-.46778.11619l.00001-.00001Zm5.40723-2.8667c-.4595717.00070187-.8604379-.311969-.9716565-.7578805-.1112187-.4459115.095856-.91021411.5019265-1.1254195l1.80176-.95557c.315884-.17063534.6989993-.15883728 1.0037852.03091165.304786.18974893.4844613.52832428.4707603.88708803-.0137011.35876375-.2186755.68264947-.5370455.84860032l-1.80176.95557c-.1440275.07659442-.3046524.11666994-.46778.11671l.00001-.00001Zm5.40723-2.86719c-.4595717.00070187-.8604379-.311969-.9716565-.7578805-.1112187-.4459115.095856-.91021411.5019265-1.1254195l1.80178-.95556c.315884-.17063534.6989993-.15883728 1.0037852.03091165.304786.18974893.4844613.52832428.4707603.88708803-.0137011.35876375-.2186755.68264947-.5370455.84860032l-1.80176.95557c-.1440344.07659412-.3046664.11666629-.4678.1167l.00001-.00001Zm7.17186-2.86718c-.16279.00024911-.3231274-.03966692-.4668-.11621L28 2.13184l-.416.22021c-.4881037.25834776-1.0932222.07209374-1.35157-.41601-.2583478-.48810374-.0720937-1.09322224.41601-1.35157l.88379-.46826c.2925218-.15527402.6430282-.15527402.93555 0l.88379.46826c.4063517.21493566.6138035.67923771.5028011 1.12532908-.1110025.44609137-.5118569.75902646-.9715511.75846092h-.00001ZM50.51074 13.937c-.1631234-.0000386-.3237446-.0401106-.46777-.1167l-1.80176-.95605c-.31837-.1659509-.5233444-.4898366-.5370455-.8486003-.013701-.3587638.1659743-.6973391.4707603-.887088.3047859-.189749.6879012-.201547 1.0037852-.0309117l1.80176.95605c.4060705.2152054.6131452.679508.5019265 1.1254195-.1112186.4459115-.5120848.7585824-.9716565.7578805Zm-5.40723-2.86719c-.1631525.0001986-.3238303-.0398876-.46777-.1167L42.834 9.99756c-.31837-.16595085-.5233444-.48983657-.5370455-.84860032-.013701-.35876375.1659743-.6973391.4707603-.88708803.3047859-.18974893.6879012-.20154699 1.0037852-.03091165l1.80176.95557c.4060705.21520539.6131452.679508.5019265 1.1254195-.1112186.4459115-.5120848.7585824-.9716565.7578805l-.00002-.00002Zm-5.40722-2.86717c-.1631525.00019858-.3238303-.03988758-.46777-.1167l-1.80176-.95557c-.31837-.16595085-.5233444-.48983657-.5370455-.84860032-.013701-.35876375.1659743-.6973391.4707603-.88708803.3047859-.18974893.6879012-.20154699 1.0037852-.03091165l1.80176.95557c.4060705.21520539.6131452.679508.5019265 1.1254195-.1112186.4459115-.5120848.75858237-.9716565.7578805ZM34.29 5.33545c-.1630851.00013675-.3237097-.03976788-.46777-.11621l-1.80273-.95557c-.4881037-.25888348-.6739234-.86443626-.41504-1.35253999.2588835-.48810373.8644363-.67392347 1.35254-.41504001l1.80273.95557c.4060129.21534247.6130218.67966075.5018272 1.12559192-.1111946.44593118-.511972.7586957-.9715572.75819808ZM55 17.31641c-.2652376.000069-.5196316-.1052657-.707183-.292817-.1875513-.1875514-.292886-.4419454-.292817-.707183v-.39795l-.35156-.18652c-.3162529-.1668463-.5193485-.4898619-.5326632-.8471801-.0133148-.3573182.1651778-.6945529.4681365-.884473.3029586-.18992.6842711-.2036184 1.0000767-.0359269l.88379.46826c.3272646.173431.5320014.5134113.53222.88379v1c.000069.2652376-.1052657.5196316-.292817.707183-.1875514.1875513-.4419454.292886-.707183.292817Zm0 23.45752c-.2652376.000069-.5196316-.1052657-.707183-.292817-.1875513-.1875514-.292886-.4419454-.292817-.707183v-1.95508c0-.5522847.4477153-1 1-1s1 .4477153 1 1v1.95508c.000069.2652376-.1052657.5196316-.292817.707183-.1875514.1875513-.4419454.292886-.707183.292817Zm0-5.86426c-.2652376.000069-.5196316-.1052657-.707183-.292817-.1875513-.1875514-.292886-.4419454-.292817-.707183v-1.95508c0-.5522847.4477153-1 1-1s1 .4477153 1 1v1.95508c.000069.2652376-.1052657.5196316-.292817.707183-.1875514.1875513-.4419454.292886-.707183.292817Zm0-5.86475c-.2652376.000069-.5196316-.1052657-.707183-.292817-.1875513-.1875514-.292886-.4419454-.292817-.707183v-1.95459c0-.5522847.4477153-1 1-1s1 .4477153 1 1v1.95459c.000069.2652376-.1052657.5196316-.292817.707183-.1875514.1875513-.4419454.292886-.707183.292817Zm0-5.86426c-.2652376.000069-.5196316-.1052657-.707183-.292817-.1875513-.1875514-.292886-.4419454-.292817-.707183v-1.95459c0-.5522847.4477153-1 1-1s1 .4477153 1 1v1.95459c.000069.2652376-.1052657.5196316-.292817.707183-.1875514.1875513-.4419454.292886-.707183.292817Zm-.88281 22.9712c-.4596942.0005655-.8605486-.3123696-.9715511-.7584609-.1110024-.4460914.0964494-.9103934.5028011-1.1253291L54 44.08154v-.39795c0-.5522847.4477153-1 1-1s1 .4477153 1 1v1c-.0002206.3703808-.2049616.7103617-.53223.88379l-.88379.46826c-.1436687.076545-.3040025.1164644-.46679.11622ZM32.48926 57.62012c-.4595717.0007019-.8604379-.311969-.9716565-.7578805-.1112187-.4459115.095856-.9102141.5019265-1.1254195l1.80176-.95557c.315884-.1706353.6989993-.1588373 1.0037852.0309117.304786.1897489.4844613.5283242.4707603.887088-.0137011.3587637-.2186755.6826494-.5370455.8486003l-1.80176.95557c-.1440254.0765894-.3046466.1166614-.46777.1167Zm5.40723-2.86719c-.4595717.0007019-.8604379-.311969-.9716565-.7578805-.1112187-.4459115.095856-.9102141.5019265-1.1254195l1.80176-.95557c.315884-.1706353.6989993-.1588373 1.0037852.0309117.304786.1897489.4844613.5283242.4707603.887088-.0137011.3587637-.2186755.6826494-.5370455.8486003l-1.80176.95557c-.1440284.0765909-.3046532.116663-.46778.1167h.00001Zm5.40625-2.8667c-.4595852.0004976-.8603626-.3122669-.9715572-.7581981-.1111946-.4459312.0958143-.9102494.5018272-1.1255919l1.80273-.95557c.4881037-.2588834 1.0936565-.0730637 1.35254.41504.2588834.4881037.0730637 1.0936565-.41504 1.35254l-1.80273.95555c-.1440615.0764507-.3046898.1163622-.46778.11623h.00001ZM48.71 49.019c-.4595852.0004976-.8603626-.3122669-.9715572-.7581981-.1111946-.4459312.0958143-.9102494.5018272-1.1255919l1.80273-.95557c.4881037-.2588834 1.0936565-.0730637 1.35254.41504.2588834.4881037.0730637 1.0936565-.41504 1.35254l-1.80273.95557c-.1440603.0764421-.3046849.1163467-.46777.11621ZM28 60c-.1630835.0001237-.323705-.0397802-.46777-.11621l-.88379-.46826c-.3162529-.1668463-.5193485-.4898619-.5326632-.8471801-.0133148-.3573182.1651778-.6945529.4681365-.884473.3029586-.18992.6842711-.2036184 1.0000767-.0359269l.416.22021.416-.22021c.3158056-.1676915.6971181-.1539931 1.0000767.0359269.3029587.1899201.4814513.5271548.4681365.884473-.0133147.3573182-.2164103.6803338-.5326632.8471801l-.88379.46826c-.144059.0764267-.3046733.1163304-.46775.11621Zm-4.48926-2.37988c-.1630851.0001367-.3237097-.0397679-.46777-.11621l-1.80273-.95557c-.4881037-.2588835-.6739234-.8644363-.41504-1.35254.2588835-.4881037.8644363-.6739234 1.35254-.41504l1.80273.95557c.4060129.2153425.6130218.6796607.5018272 1.1255919-.1111946.4459312-.511972.7586957-.9715572.7581981Zm-5.40723-2.86719c-.1631525.0001986-.3238303-.0398876-.46777-.1167l-1.80174-.95557c-.31837-.1659509-.5233444-.4898366-.5370455-.8486003-.013701-.3587638.1659743-.6973391.4707603-.887088.3047859-.189749.6879012-.201547 1.0037852-.0309117l1.80176.95557c.4060705.2152054.6131452.679508.5019265 1.1254195-.1112186.4459115-.5120848.7585824-.9716565.7578805h-.00002Zm-5.40723-2.86719c-.1631525.0001986-.3238303-.0398876-.46777-.1167l-1.80176-.95557c-.31837-.1659509-.52334443-.4898366-.53704548-.8486003-.01370104-.3587638.16597428-.6973391.47076028-.887088.3047859-.189749.6879012-.201547 1.0037852-.0309117l1.80176.95557c.4060705.2152054.6131452.679508.5019265 1.1254195-.1112186.4459115-.5120848.7585824-.9716565.7578805ZM7.28906 49.019c-.16312342-.0000386-.32374458-.0401106-.46777-.1167l-1.80176-.95605c-.31837001-.1659509-.52334443-.4898366-.53704548-.8486003-.01370104-.3587638.16597426-.6973391.47076023-.887088.30478598-.189749.68790121-.201547 1.00378525-.0309117l1.80176.95605c.40607054.2152054.61314515.679508.50192654 1.1254195s-.51208483.7585824-.97165654.7578805Z"/>
  <path d="M28 55c-.1630835.0001237-.323705-.0397802-.46777-.11621l-23-12.17285c-.32735742-.1733343-.53213412-.5133745-.53223-.88379v-23.6543c.00009588-.3704155.20487258-.7104557.53223-.88379l23-12.17285c.2925218-.15527402.6430282-.15527402.93555 0l23 12.17285c.3273535.173337.5321261.5133767.53222.88379v23.6543c-.0000959.3704155-.2048726.7104557-.53223.88379l-23 12.17285c-.144065.0764298-.3046865.1163337-.46777.11621ZM6 41.2251l22 11.64355L50 41.2251V18.7749L28 7.13135 6 18.7749v22.4502Z"/>
  <path d="M28 31.3457c-.1630835.0001237-.323705-.0397802-.46777-.11621l-23-12.17285c-.3162529-.1668463-.51934846-.4898619-.53266324-.8471801-.01331479-.3573182.16517781-.6945529.46813649-.884473.30295869-.18992.68427117-.2036184 1.00007675-.0359269L28 29.21436l22.53223-11.9253c.4879874-.2574487 1.092283-.0710027 1.350384.4166401.258101.4876427.0724632 1.0921871-.414834 1.3509399l-23 12.17285c-.144068.0764314-.3046931.1163353-.46778.11621Z"/>
</svg>
