<svg xmlns="http://www.w3.org/2000/svg" fill="currentColor" viewBox="0 0 60 50">
    <path d="M30 15.999c-14.908 0-30-2.748-30-8s15.092-8 30-8 30 2.748 30 8-15.092 8-30 8Zm0-14c-17.348 0-28 3.494-28 6 0 2.505 10.652 6 28 6s28-3.495 28-6c0-2.506-10.652-6-28-6Z"></path>
    <path d="M30 12c-1.535 0-15-.112-15-4s13.465-4 15-4c1.535 0 15 .112 15 4s-13.465 4-15 4ZM17.084 8c.87.778 5.518 2 12.916 2 7.398 0 12.047-1.222 12.916-2-.87-.778-5.518-2-12.916-2-7.398 0-12.047 1.222-12.916 2ZM29.416 50a84.55 84.55 0 0 1-20.155-2.152C3.208 46.292.002 44.11-.01 41.536c-.013-2.063 1.973-3.868 5.904-5.365a1 1 0 1 1 .71 1.869c-2.896 1.103-4.622 2.406-4.615 3.485.005 1.104 2.043 2.914 7.769 4.386a83.2 83.2 0 0 0 20.265 2.087c17.346-.106 27.979-4.026 27.966-6.79-.007-1.064-1.688-2.326-4.499-3.373a1 1 0 1 1 .697-1.874c3.838 1.429 5.79 3.19 5.802 5.237.02 4.283-10.262 8.68-29.954 8.8-.206.002-.414.002-.62.002Z"></path>
    <path d="M30 22c-12.12 0-25-3.185-25-9.086-.003-.427.073-.85.224-1.25a1 1 0 0 1 1.946.315v.186l-.067.185c-.07.18-.105.371-.103.564C7 16.266 16.445 20 30 20s23-3.734 23-7.086a1.496 1.496 0 0 0-.103-.564l-.067-.174v-.186a1.001 1.001 0 0 1 1.966-.272c.138.384.207.789.204 1.196C55 18.815 42.12 22 30 22Z"></path>
    <path d="M30 28c-12.12 0-25-3.17-25-9.048a4.993 4.993 0 0 1 2.146-3.82 1 1 0 0 1 1.268 1.547A3.145 3.145 0 0 0 7 18.952C7 22.286 16.445 26 30 26s23-3.714 23-7.048a3.145 3.145 0 0 0-1.414-2.273 1 1 0 1 1 1.268-1.547A4.993 4.993 0 0 1 55 18.952C55 24.83 42.12 28 30 28Z"></path>
    <path d="M30 34c-12.12 0-25-3.124-25-8.912a4.908 4.908 0 0 1 2.153-3.774 1 1 0 0 1 1.254 1.558A3.067 3.067 0 0 0 7 25.088C7 28.358 16.445 32 30 32s23-3.643 23-6.912a3.067 3.067 0 0 0-1.407-2.216 1 1 0 0 1 1.254-1.558A4.908 4.908 0 0 1 55 25.088C55 30.876 42.12 34 30 34Z"></path>
    <path d="M30 40c-12.12 0-25-3.076-25-8.776a4.824 4.824 0 0 1 2.16-3.727A1 1 0 0 1 8.4 29.065 2.989 2.989 0 0 0 7 31.225C7 34.428 16.445 38 30 38s23-3.57 23-6.776a2.989 2.989 0 0 0-1.401-2.16 1 1 0 0 1 1.242-1.567A4.824 4.824 0 0 1 55 31.224C55 36.924 42.12 40 30 40Z"></path>
    <path d="M30 46c-12.12 0-25-3.12-25-8.902a4.903 4.903 0 0 1 2.153-3.77 1 1 0 0 1 1.254 1.558A3.06 3.06 0 0 0 7 37.098C7 40.363 16.445 44 30 44s23-3.637 23-6.902a3.06 3.06 0 0 0-1.407-2.212 1 1 0 1 1 1.254-1.558A4.903 4.903 0 0 1 55 37.098C55 42.88 42.12 46 30 46Z"></path>
</svg>
