<svg xmlns="http://www.w3.org/2000/svg" viewBox="0 0 60 60" fill="currentColor">
    <path d="M35 7H25a1 1 0 0 1-1-1V1a1 1 0 0 1 1-1h10a1 1 0 0 1 1 1v5a1 1 0 0 1-1 1Zm-9-2h8V2h-8v3Z"></path>
    <path d="M39 13H21a1 1 0 0 1-1-1V6a1 1 0 0 1 1-1h18a1 1 0 0 1 1 1v6a1 1 0 0 1-1 1Zm-17-2h16V7H22v4Z"></path>
    <path d="M32 23h-4a1 1 0 0 1-.895-.553l-5-10A1 1 0 0 1 23 11h14a1 1 0 0 1 .895 1.447l-5 10A1 1 0 0 1 32 23Zm-3.382-2h2.764l4-8H24.618l4 8Z"></path>
    <path d="M57 60H3a3 3 0 0 1 0-6h51v-2H3a3.003 3.003 0 0 1-3-3v-8a3.003 3.003 0 0 1 3-3h51v-2H30a3.003 3.003 0 0 1-3-3V22h2v11c0 .552.448 1 1 1h25a1 1 0 0 1 1 1v4a1 1 0 0 1-1 1H3c-.552 0-1 .448-1 1v8c0 .552.448 1 1 1h52a1 1 0 0 1 1 1v4a1 1 0 0 1-1 1H3a1 1 0 0 0 0 2h54c.552 0 1-.448 1-1v-8c0-.552-.448-1-1-1H5a1 1 0 0 1-1-1v-4a1 1 0 0 1 1-1h52c.552 0 1-.448 1-1v-8c0-.552-.448-1-1-1H32a1 1 0 0 1-1-1v-9h2v8h24a3.003 3.003 0 0 1 3 3v8a3.003 3.003 0 0 1-3 3H6v2h51a3.003 3.003 0 0 1 3 3v8a3.003 3.003 0 0 1-3 3Z"></path>
</svg>
