<svg xmlns="http://www.w3.org/2000/svg" viewBox="0 0 60 60" fill="currentColor">
    <path d="M25 18a1 1 0 0 1-1-1V1a1 1 0 0 1 2 0v16a1 1 0 0 1-1 1ZM35 18a1 1 0 0 1-1-1V1a1 1 0 0 1 2 0v16a1 1 0 0 1-1 1Z"></path>
    <path d="M35 16H25a1 1 0 0 1-1-1V3a1 1 0 0 1 1-1h10a1 1 0 0 1 1 1v12a1 1 0 0 1-1 1Zm-9-2h8V4h-8v10Z"></path>
    <path d="M29 12a1 1 0 0 1-1-1V7a1 1 0 0 1 2 0v4a1 1 0 0 1-1 1ZM21 22a1 1 0 0 1-1-1V11a3.003 3.003 0 0 1 3-3h2a1 1 0 0 1 0 2h-2c-.552 0-1 .448-1 1v10a1 1 0 0 1-1 1ZM39 22a1 1 0 0 1-1-1V11c0-.552-.448-1-1-1h-2a1 1 0 0 1 0-2h2a3.003 3.003 0 0 1 3 3v10a1 1 0 0 1-1 1Z"></path>
    <path d="M49 26H11a1 1 0 0 1-1-1v-4a1 1 0 0 1 1-1h38a1 1 0 0 1 1 1v4a1 1 0 0 1-1 1Zm-37-2h36v-2H12v2Z"></path>
    <path d="M10 35H4a2.002 2.002 0 0 1-2-2V20a2.002 2.002 0 0 1 2-2h6a2.002 2.002 0 0 1 2 2v13a2.002 2.002 0 0 1-2 2ZM4 20v13h6.001L10 20H4ZM56 35h-6a2.002 2.002 0 0 1-2-2V20a2.002 2.002 0 0 1 2-2h6a2.002 2.002 0 0 1 2 2v13a2.002 2.002 0 0 1-2 2Zm-6-15v13h6.001L56 20h-6ZM22 33h-6a2.002 2.002 0 0 1-2-2v-5a2.002 2.002 0 0 1 2-2h6a2.002 2.002 0 0 1 2 2v5a2.002 2.002 0 0 1-2 2Zm-6-7v5h6.001L22 26h-6Z"></path>
    <path d="M55 56h-4a1 1 0 0 1-1-1V34a1 1 0 0 1 1-1h4a1 1 0 0 1 1 1v21a1 1 0 0 1-1 1Zm-3-2h2V35h-2v19ZM9 56H5a1 1 0 0 1-1-1V34a1 1 0 0 1 1-1h4a1 1 0 0 1 1 1v21a1 1 0 0 1-1 1Zm-3-2h2V35H6v19ZM15 30h-4a1 1 0 0 1 0-2h4a1 1 0 0 1 0 2ZM49 30H23a1 1 0 0 1 0-2h26a1 1 0 0 1 0 2ZM19 36a1 1 0 0 1-1-1v-3a1 1 0 0 1 2 0v3a1 1 0 0 1-1 1Z"></path>
    <path d="M58 60H2a2.002 2.002 0 0 1-2-2v-2a2.002 2.002 0 0 1 2-2h18.5a1 1 0 0 1 0 2H2v2h56v-2H39.5a1 1 0 0 1 0-2H58a2.002 2.002 0 0 1 2 2v2a2.002 2.002 0 0 1-2 2Z"></path>
    <path d="M41 60H19a1 1 0 0 1-.937-1.351l2.514-6.702A3.015 3.015 0 0 1 23.387 50h13.227a3.014 3.014 0 0 1 2.809 1.947l2.514 6.702A1 1 0 0 1 41 60Zm-20.557-2h19.114l-2.007-5.351a1.005 1.005 0 0 0-.936-.649H23.386c-.416.001-.79.26-.937.65L20.443 58Z"></path>
</svg>
